<svg width="48" height="48" viewBox="0 0 48 48" fill="none" xmlns="http://www.w3.org/2000/svg">
<path d="M11.576 34.42C10.0827 34.42 8.734 34.1587 7.53 33.636C6.33533 33.104 5.35067 32.348 4.576 31.368C3.81067 30.3787 3.32533 29.2027 3.12 27.84L7.096 27.252C7.376 28.4093 7.95467 29.3007 8.832 29.926C9.70933 30.5513 10.708 30.864 11.828 30.864C12.4533 30.864 13.06 30.766 13.648 30.57C14.236 30.374 14.7167 30.0847 15.09 29.702C15.4727 29.3193 15.664 28.848 15.664 28.288C15.664 28.0827 15.6313 27.8867 15.566 27.7C15.51 27.504 15.412 27.322 15.272 27.154C15.132 26.986 14.9313 26.8273 14.67 26.678C14.418 26.5287 14.096 26.3933 13.704 26.272L8.468 24.732C8.076 24.62 7.61867 24.4613 7.096 24.256C6.58267 24.0507 6.08333 23.7567 5.598 23.374C5.11267 22.9913 4.70667 22.4873 4.38 21.862C4.06267 21.2273 3.904 20.4293 3.904 19.468C3.904 18.1147 4.24467 16.99 4.926 16.094C5.60733 15.198 6.51733 14.5307 7.656 14.092C8.79467 13.6533 10.0547 13.4387 11.436 13.448C12.8267 13.4667 14.068 13.7047 15.16 14.162C16.252 14.6193 17.1667 15.2867 17.904 16.164C18.6413 17.032 19.1733 18.096 19.5 19.356L15.384 20.056C15.2347 19.4027 14.9593 18.852 14.558 18.404C14.1567 17.956 13.676 17.6153 13.116 17.382C12.5653 17.1487 11.9867 17.0227 11.38 17.004C10.7827 16.9853 10.218 17.0693 9.686 17.256C9.16333 17.4333 8.734 17.6947 8.398 18.04C8.07133 18.3853 7.908 18.796 7.908 19.272C7.908 19.7107 8.04333 20.07 8.314 20.35C8.58467 20.6207 8.92533 20.84 9.336 21.008C9.74667 21.176 10.1667 21.316 10.596 21.428L14.096 22.38C14.6187 22.52 15.1973 22.7067 15.832 22.94C16.4667 23.164 17.0733 23.4813 17.652 23.892C18.24 24.2933 18.7207 24.8253 19.094 25.488C19.4767 26.1507 19.668 26.9907 19.668 28.008C19.668 29.0907 19.4393 30.038 18.982 30.85C18.534 31.6527 17.9273 32.32 17.162 32.852C16.3967 33.3747 15.5287 33.7667 14.558 34.028C13.5967 34.2893 12.6027 34.42 11.576 34.42ZM40.9452 34V25.068C40.9452 24.0693 40.7072 23.2947 40.2312 22.744C39.7645 22.184 39.1158 21.904 38.2852 21.904C37.7532 21.904 37.2912 22.03 36.8992 22.282C36.5072 22.5247 36.1992 22.87 35.9752 23.318C35.7605 23.7567 35.6532 24.2653 35.6532 24.844L34.0572 23.78C34.0572 22.744 34.2998 21.8293 34.7852 21.036C35.2798 20.2427 35.9378 19.6267 36.7592 19.188C37.5898 18.74 38.5092 18.516 39.5172 18.516C41.2438 18.516 42.5458 19.0293 43.4232 20.056C44.3098 21.0733 44.7532 22.408 44.7532 24.06V34H40.9452ZM22.7172 34V18.88H26.0772V23.892H26.5532V34H22.7172ZM31.8452 34V25.068C31.8452 24.0693 31.6072 23.2947 31.1312 22.744C30.6645 22.184 30.0158 21.904 29.1852 21.904C28.3918 21.904 27.7525 22.1793 27.2672 22.73C26.7912 23.2713 26.5532 23.976 26.5532 24.844L24.9572 23.724C24.9572 22.7347 25.2045 21.848 25.6992 21.064C26.1938 20.28 26.8565 19.6593 27.6872 19.202C28.5272 18.7447 29.4652 18.516 30.5012 18.516C31.6865 18.516 32.6572 18.768 33.4132 19.272C34.1785 19.776 34.7432 20.448 35.1072 21.288C35.4712 22.128 35.6532 23.052 35.6532 24.06V34H31.8452Z" fill="#31353B"/>
</svg>
